<?xml version="1.0" encoding="utf-8"?>
<!-- Generator: Adobe Illustrator 23.0.6, SVG Export Plug-In . SVG Version: 6.00 Build 0)  -->
<svg version="1.1" id="Calque_1" xmlns="http://www.w3.org/2000/svg" xmlns:xlink="http://www.w3.org/1999/xlink" x="0px" y="0px"
	 viewBox="0 0 300 71.4" style="enable-background:new 0 0 300 71.4;" xml:space="preserve">
<style type="text/css">
	.st0{fill:#FFFFFF;}
	.st1{fill:#FD2D01;}
	.st2{fill:#FFD7D7;}
</style>
<rect class="st0" width="300" height="71.4"/>
<g id="b5a93e15-ef7c-9d7a-680b-cdb17474f15f" transform="matrix(2.2,0,0,2.2,90.86749374866484,130.23299922943116)">
	<path class="st1" d="M5.4-39.4L5.4-39.4c-1.5,0-2.7-0.5-3.7-1.5l0,0l0,0c-1-1-1.5-2.2-1.5-3.7l0,0l0,0c0-1.4,0.5-2.7,1.5-3.6l0,0
		l0,0c1-1,2.2-1.5,3.7-1.5l0,0l0,0c1.5,0,2.7,0.5,3.8,1.4l0,0l-1.4,1.5l0,0c-0.7-0.6-1.5-0.8-2.4-0.8l0,0l0,0
		c-0.9,0-1.7,0.3-2.2,0.9l0,0l0,0c-0.6,0.5-0.9,1.2-0.9,2.1l0,0l0,0c0,1,0.3,1.7,0.9,2.3l0,0l0,0c0.6,0.6,1.3,0.8,2.2,0.8l0,0l0,0
		c0.7,0,1.3-0.1,1.7-0.4l0,0v-1.8H5.7v-1.9h3.4v4.8l0,0C8.1-39.9,6.9-39.4,5.4-39.4L5.4-39.4z M12.8-46.3v0.8l0,0
		c0.5-0.5,1.1-0.8,1.8-0.8l0,0l0,0c0.2,0,0.4,0,0.6,0l0,0l-0.2,2l0,0c-0.2-0.2-0.5-0.3-0.9-0.3l0,0l0,0c-0.5,0-0.9,0.4-1.2,1l0,0
		v4.2H11v-6.7L12.8-46.3z M19.6-39.4L19.6-39.4c-1,0-1.8-0.3-2.5-1l0,0l0,0c-0.7-0.7-1-1.5-1-2.5l0,0l0,0c0-1,0.3-1.8,1-2.5l0,0l0,0
		c0.7-0.7,1.5-1,2.5-1l0,0l0,0c1,0,1.8,0.3,2.5,1l0,0l0,0c0.7,0.7,1,1.5,1,2.5l0,0l0,0c0,1-0.3,1.8-1,2.5l0,0l0,0
		C21.4-39.7,20.6-39.4,19.6-39.4L19.6-39.4z M19.6-41L19.6-41L19.6-41c0.5,0,0.9-0.2,1.3-0.5l0,0l0,0c0.3-0.3,0.5-0.8,0.5-1.3l0,0
		l0,0c0-0.5-0.2-1-0.5-1.3l0,0l0,0c-0.3-0.4-0.8-0.5-1.3-0.5l0,0l0,0c-0.5,0-0.9,0.2-1.3,0.5l0,0l0,0c-0.3,0.3-0.5,0.8-0.5,1.3l0,0
		l0,0c0,0.5,0.2,1,0.5,1.3l0,0l0,0C18.7-41.2,19.1-41,19.6-41z M28.5-41.9L28.5-41.9v-4.4h1.9v6.8h-1.9v-0.6l0,0
		c-0.5,0.4-1,0.6-1.6,0.6l0,0l0,0c-0.9,0-1.5-0.3-2-0.8l0,0l0,0c-0.5-0.5-0.7-1.1-0.7-1.8l0,0v-4.2h1.9v3.8l0,0
		c0,0.5,0.1,0.8,0.3,1.1l0,0l0,0c0.2,0.3,0.6,0.4,1,0.4l0,0l0,0C27.9-41.1,28.2-41.3,28.5-41.9z M34-36.5h-1.9v-9.6l1.9-0.2v0.6l0,0
		c0.5-0.4,1-0.6,1.5-0.6l0,0l0,0c1,0,1.9,0.3,2.5,1l0,0l0,0c0.6,0.7,0.9,1.5,0.9,2.4l0,0l0,0c0,0.9-0.3,1.7-0.9,2.4l0,0l0,0
		c-0.6,0.7-1.4,1-2.5,1l0,0l0,0c-0.7,0-1.2-0.2-1.5-0.6l0,0V-36.5z M34-43.5L34-43.5v1.1l0,0c0.1,0.8,0.6,1.2,1.4,1.4l0,0l0,0
		c1.1-0.1,1.7-0.7,1.8-1.7l0,0l0,0c0-1.3-0.7-1.9-1.8-2l0,0l0,0C34.5-44.6,34.1-44.1,34-43.5z M43.3-39.4L43.3-39.4
		c-1,0-1.8-0.3-2.5-1l0,0l0,0c-0.7-0.7-1-1.5-1-2.5l0,0l0,0c0-1,0.3-1.8,1-2.5l0,0l0,0c0.7-0.7,1.5-1,2.5-1l0,0l0,0
		c1,0,1.8,0.3,2.5,1l0,0l0,0c0.7,0.7,1,1.5,1,2.5l0,0l0,0c0,1-0.3,1.8-1,2.5l0,0l0,0C45.2-39.7,44.3-39.4,43.3-39.4L43.3-39.4z
		 M43.3-41L43.3-41L43.3-41c0.5,0,0.9-0.2,1.3-0.5l0,0l0,0c0.3-0.3,0.5-0.8,0.5-1.3l0,0l0,0c0-0.5-0.2-1-0.5-1.3l0,0l0,0
		c-0.3-0.4-0.7-0.5-1.3-0.5l0,0l0,0c-0.5,0-0.9,0.2-1.3,0.5l0,0l0,0c-0.3,0.3-0.5,0.8-0.5,1.3l0,0l0,0c0,0.5,0.2,1,0.5,1.3l0,0l0,0
		C42.4-41.2,42.8-41,43.3-41z M50-43.8L50-43.8v4.4h-1.9v-6.7l1.9-0.2v0.6l0,0c0.4-0.4,1-0.6,1.6-0.6l0,0l0,0c0.9,0,1.5,0.3,2,0.8
		l0,0l0,0c0.5-0.5,1.3-0.8,2.2-0.8l0,0l0,0c0.9,0,1.5,0.3,2,0.8l0,0l0,0c0.5,0.5,0.7,1.1,0.7,1.8l0,0v4.2h-1.9v-3.7l0,0
		c0-0.5-0.1-0.8-0.3-1.1l0,0l0,0c-0.2-0.2-0.5-0.4-1-0.4l0,0l0,0c-0.4,0-0.7,0.3-1,0.8l0,0l0,0c0,0.1,0,0.3,0,0.4l0,0v4h-1.9v-3.7
		l0,0c0-0.5-0.1-0.8-0.3-1.1l0,0l0,0c-0.2-0.2-0.5-0.4-1-0.4l0,0l0,0C50.7-44.6,50.3-44.3,50-43.8z M61.1-44.3l-0.8-1.2l0,0
		c0.9-0.5,1.9-0.8,3-0.8l0,0l0,0c0.8,0,1.5,0.2,1.9,0.7l0,0l0,0c0.5,0.5,0.7,1.1,0.7,2l0,0v4.1H64V-40l0,0c-0.6,0.4-1.1,0.5-1.5,0.5
		l0,0l0,0c-0.9,0-1.6-0.2-2-0.6l0,0l0,0c-0.5-0.4-0.7-0.9-0.7-1.6l0,0l0,0c0-0.6,0.2-1.2,0.7-1.7l0,0l0,0c0.5-0.4,1.2-0.7,2.1-0.7
		l0,0l0,0c0.4,0,1,0.1,1.5,0.4l0,0v-0.2l0,0c0-0.5-0.4-0.8-1.1-0.8l0,0l0,0C62.2-44.7,61.6-44.6,61.1-44.3L61.1-44.3z M64.2-41.5
		L64.2-41.5v-0.7l0,0c-0.2-0.4-0.6-0.5-1.3-0.5l0,0l0,0c-0.8,0.1-1.3,0.4-1.3,1l0,0l0,0c0,0.5,0.5,0.8,1.3,0.9l0,0l0,0
		C63.5-40.9,64-41.1,64.2-41.5z M69.7-43.8L69.7-43.8v4.3h-1.9v-6.6l1.9-0.2v0.6l0,0c0.5-0.4,1-0.6,1.6-0.6l0,0l0,0
		c0.9,0,1.5,0.3,2,0.8l0,0l0,0c0.5,0.5,0.7,1.2,0.7,1.8l0,0v4.2h-1.9v-3.7l0,0c0-0.5-0.1-0.8-0.3-1.1l0,0l0,0
		c-0.2-0.2-0.6-0.4-1-0.4l0,0l0,0C70.3-44.6,70-44.3,69.7-43.8z M77.5-39.4h-1.9v-6.9h1.9V-39.4z M75.5-47.9L75.5-47.9L75.5-47.9
		c0,0.3,0.1,0.5,0.3,0.7l0,0l0,0c0.2,0.2,0.4,0.3,0.8,0.3l0,0l0,0c0.3,0,0.6-0.1,0.8-0.3l0,0l0,0c0.2-0.2,0.3-0.4,0.3-0.7l0,0l0,0
		c0-0.3-0.1-0.5-0.3-0.7l0,0l0,0c-0.2-0.2-0.4-0.3-0.8-0.3l0,0l0,0c-0.3,0-0.6,0.1-0.7,0.3l0,0l0,0C75.6-48.4,75.5-48.2,75.5-47.9z
		 M80.1-44.3l-0.8-1.2l0,0c0.9-0.5,1.9-0.8,3-0.8l0,0l0,0c0.8,0,1.5,0.2,1.9,0.7l0,0l0,0c0.5,0.5,0.8,1.2,0.8,2.1l0,0v4.1h-1.9v-0.5
		l0,0c-0.6,0.4-1.1,0.5-1.5,0.5l0,0l0,0c-0.9,0-1.6-0.2-2.1-0.6l0,0l0,0c-0.5-0.4-0.7-0.9-0.7-1.6l0,0l0,0c0-0.6,0.2-1.2,0.7-1.7
		l0,0l0,0c0.4-0.5,1.1-0.8,2.1-0.8l0,0l0,0c0.4,0,0.9,0.1,1.5,0.4l0,0v-0.2l0,0c0-0.5-0.4-0.8-1.1-0.8l0,0l0,0
		C81.2-44.7,80.5-44.6,80.1-44.3L80.1-44.3z M83.1-41.5L83.1-41.5v-0.7l0,0c-0.2-0.4-0.6-0.5-1.3-0.5l0,0l0,0
		c-0.8,0.1-1.3,0.4-1.3,1l0,0l0,0c0,0.5,0.5,0.8,1.3,0.9l0,0l0,0C82.5-40.9,82.9-41.1,83.1-41.5z"/>
</g>
<g transform="matrix(0.17276311525438642,0,0,0.17276311525438642,35.75002377601375,124.08554457454373)">
	<g>
		<path class="st2" d="M150-388.5c33.6,0,65.1-12.9,88.8-36.6s36.6-55.2,36.6-88.8s-12.9-65.1-36.6-88.8s-55.2-36.6-88.8-36.6
			s-65.1,12.9-88.8,36.6s-36.6,55.2-36.6,88.8c0,33.6,12.9,65.1,36.6,88.8S116.4-388.5,150-388.5z M157.2-409.8
			c-2.4,0.3-4.8,0.3-7.2,0.3c-3.3,0-6.6-0.3-9.9-0.6c-10.8-16.8-18.9-34.8-23.7-53.7h53.1c1.8,4.5,5.1,8.7,9,11.4
			C173.4-437.4,166.2-423.3,157.2-409.8z M185.7-415.8c5.7-10.5,10.2-21,13.8-32.1c8.7-1.8,15.6-7.8,18.9-15.9h23.1
			C229.5-441.9,209.4-424.8,185.7-415.8z M254.1-513.9c0,9.9-1.5,19.5-3.9,28.8h-32.4c-1.8-3.9-4.8-7.5-8.4-10.2
			c0.6-6.6,0.9-13.2,0.9-19.8c0-9.3-0.6-18.6-1.8-27.6h41.4C252.9-533.7,254.1-523.8,254.1-513.9z M241.5-564h-36.6
			c-3.9-16.5-9.6-32.1-17.4-47.1C210.3-602.4,229.5-585.3,241.5-564z M189.3-515.1c0,5.1-0.3,10.2-0.6,15.3
			c-8.4,1.8-15.3,7.2-18.6,14.7h-57.9c-1.2-9-2.1-18.3-2.1-27.3c0-5.7,0.3-11.4,0.9-17.1c7.8-1.5,14.1-6.6,18-13.2h58.5
			C188.7-533.7,189.3-524.4,189.3-515.1z M142.2-617.7c2.7-0.3,5.4-0.3,7.8-0.3c3,0,6,0,9,0.3c10.8,16.8,18.9,34.8,23.7,53.7h-52.2
			c-1.8-5.1-5.1-9.6-9.3-12.9C126.6-591.3,133.5-604.8,142.2-617.7z M113.7-611.7c-5.1,9.6-9.6,19.8-13.2,30
			c-9.3,1.8-16.8,8.7-19.8,17.4H58.8C70.5-585.6,90-602.7,113.7-611.7z M45.9-513.9c0-9.9,1.5-19.8,4.2-28.8h32.7
			c1.8,3.3,4.5,6.3,7.5,8.7c-0.6,7.2-1.2,14.4-1.2,21.6c0,9.3,0.6,18.3,1.8,27.3H50.1C47.1-494.4,45.9-504,45.9-513.9z M94.5-464.1
			c3.9,16.2,9.6,32.1,17.4,47.1c-22.8-9-41.7-25.8-53.4-47.1C58.5-464.1,94.5-464.1,94.5-464.1z"/>
	</g>
</g>
</svg>
